<svg id="calendar-full" xmlns="http://www.w3.org/2000/svg" width="32" height="32" viewBox="0 0 32 32">  <defs>    <style>      .cls-2{fill:#FFFFFF}    </style>  </defs>  <g id="Group_712" data-name="Group 712" transform="translate(3.321 5.985)">    <path id="Path_2856" data-name="Path 2856" class="cls-2" d="M4.981 12.328v-1.3a2.053 2.053 0 0 1 2.053-2.051h5.947v2.018a.684.684 0 1 0 1.369 0V8.977h6.631v2.018a.684.684 0 1 0 1.369 0V8.977h5.95a2.053 2.053 0 0 1 2.05 2.053v1.3a.667.667 0 0 1-.667.667H5.648a.667.667 0 0 1-.667-.669z" transform="translate(-4.981 -8.977)"/>    <path id="Path_2857" data-name="Path 2857" class="cls-2" d="M4.981 17.671v13.288a2.053 2.053 0 0 0 2.053 2.053H28.3a2.053 2.053 0 0 0 2.05-2.052V17.671a.666.666 0 0 0-.667-.671H5.648a.666.666 0 0 0-.667.671zM23 19.653h2.667a.685.685 0 0 1 0 1.369H23a.685.685 0 0 1 0-1.369zm0 3.993h2.667a.684.684 0 0 1 0 1.369H23a.684.684 0 1 1 0-1.369zm0 4h2.667a.684.684 0 0 1 0 1.369H23a.684.684 0 1 1 0-1.369zm-6.667-7.991H19a.685.685 0 0 1 0 1.369h-2.668a.685.685 0 0 1 0-1.369zm0 3.993H19a.684.684 0 0 1 0 1.369h-2.668a.684.684 0 1 1 0-1.369zm0 4H19a.684.684 0 0 1 0 1.369h-2.668a.684.684 0 1 1 0-1.369zm-6.667-7.995h2.667a.685.685 0 0 1 0 1.369H9.666a.685.685 0 1 1 0-1.369zm0 3.993h2.667a.684.684 0 0 1 0 1.369H9.666a.684.684 0 1 1 0-1.369zm0 4h2.667a.684.684 0 0 1 0 1.369H9.666a.684.684 0 1 1 0-1.369z" transform="translate(-4.981 -11.653)"/>  </g></svg>